<svg width="35" height="35" viewBox="0 0 35 35" fill="none" xmlns="http://www.w3.org/2000/svg">
<path d="M24.7914 2.91641C26.7236 2.92218 28.5751 3.69231 29.9414 5.05861C31.3077 6.42491 32.0778 8.27636 32.0836 10.2086V24.7914C32.0778 26.7236 31.3077 28.5751 29.9414 29.9414C28.5751 31.3077 26.7236 32.0778 24.7914 32.0836H10.2086C8.27636 32.0778 6.42491 31.3077 5.05861 29.9414C3.69231 28.5751 2.92218 26.7236 2.91641 24.7914V10.2086C2.92218 8.27636 3.69231 6.42491 5.05861 5.05861C6.42491 3.69231 8.27636 2.92218 10.2086 2.91641H24.7914ZM24.7914 0H10.2086C4.59375 0 0 4.59375 0 10.2086V24.7914C0 30.4062 4.59375 35 10.2086 35H24.7914C30.4062 35 35 30.4062 35 24.7914V10.2086C35 4.59375 30.4062 0 24.7914 0Z" fill="white"/>
<path d="M27 10C26.6044 10 26.2178 9.8827 25.8889 9.66294C25.56 9.44317 25.3036 9.13082 25.1522 8.76536C25.0009 8.39991 24.9613 7.99778 25.0384 7.60982C25.1156 7.22186 25.3061 6.86549 25.5858 6.58579C25.8655 6.30608 26.2219 6.1156 26.6098 6.03843C26.9978 5.96126 27.3999 6.00087 27.7654 6.15224C28.1308 6.30362 28.4432 6.55996 28.6629 6.88886C28.8827 7.21776 29 7.60444 29 8C29.0006 8.2628 28.9492 8.52313 28.8489 8.76603C28.7486 9.00894 28.6013 9.22964 28.4155 9.41547C28.2296 9.6013 28.0089 9.7486 27.766 9.84891C27.5231 9.94921 27.2628 10.0006 27 10Z" fill="white"/>
<path d="M17.5 11.8331C18.6208 11.8331 19.7165 12.1654 20.6484 12.7881C21.5803 13.4108 22.3066 14.2959 22.7356 15.3314C23.1645 16.3669 23.2767 17.5063 23.058 18.6056C22.8394 19.7048 22.2997 20.7146 21.5071 21.5071C20.7146 22.2996 19.7048 22.8394 18.6056 23.058C17.5063 23.2767 16.3669 23.1645 15.3314 22.7355C14.2959 22.3066 13.4108 21.5803 12.7881 20.6484C12.1654 19.7164 11.8331 18.6208 11.8331 17.5C11.8347 15.9975 12.4323 14.5571 13.4947 13.4947C14.5571 12.4323 15.9975 11.8347 17.5 11.8331ZM17.5 9C15.8189 9 14.1755 9.49852 12.7777 10.4325C11.3798 11.3665 10.2904 12.694 9.64703 14.2472C9.00368 15.8004 8.83535 17.5094 9.16333 19.1583C9.4913 20.8071 10.3008 22.3217 11.4896 23.5104C12.6783 24.6991 14.1929 25.5087 15.8417 25.8367C17.4906 26.1646 19.1996 25.9963 20.7528 25.353C22.306 24.7096 23.6335 23.6202 24.5675 22.2223C25.5015 20.8245 26 19.1811 26 17.5C26 15.2457 25.1045 13.0837 23.5104 11.4896C21.9163 9.89553 19.7543 9 17.5 9Z" fill="white"/>
</svg>
