<svg width="48" height="28" viewBox="0 0 48 28" fill="none" xmlns="http://www.w3.org/2000/svg">
<path fill-rule="evenodd" clip-rule="evenodd" d="M46.8986 1.89598C47.2322 0.80308 46.8986 0 45.3106 0H40.0594C38.7242 0 38.1086 0.69374 37.7748 1.45872C37.7748 1.45872 35.1042 7.85214 31.3212 12.005C30.0974 13.2072 29.541 13.5898 28.8734 13.5898C28.5396 13.5898 28.0388 13.2072 28.0388 12.1144V1.89598C28.0388 0.5845 27.669 0 26.5562 0H18.3043C17.4699 0 16.9681 0.60868 16.9681 1.18556C16.9681 2.42882 18.8595 2.71554 19.0544 6.21282V13.8084C19.0544 15.4736 18.7483 15.7756 18.0806 15.7756C16.3005 15.7756 11.9701 9.35364 9.40186 2.00522C8.89854 0.57694 8.39372 0 7.05166 0H1.80044C0.300088 0 0 0.69374 0 1.45872C0 2.82488 1.78028 9.60078 8.28928 18.5624C12.6286 24.6824 18.7424 28 24.3056 28C27.6436 28 28.0566 27.2632 28.0566 25.994V21.3684C28.0566 19.8948 28.3728 19.6006 29.4298 19.6006C30.2086 19.6006 31.5438 19.9832 34.6592 22.934C38.2198 26.4312 38.8068 28 40.8094 28H46.0608C47.561 28 48.3112 27.2632 47.8784 25.809C47.4048 24.3598 45.705 22.2572 43.4494 19.7646C42.2254 18.3438 40.3894 16.8138 39.833 16.0486C39.0542 15.0652 39.2768 14.628 39.833 13.7538C39.833 13.7538 46.231 4.90134 46.8986 1.89598Z" fill="white"/>
</svg>
