<svg width="35" height="42" viewBox="0 0 35 42" fill="none" xmlns="http://www.w3.org/2000/svg">
<path d="M2.48491 13.5712C2.5587 12.4407 2.97612 11.3859 3.65403 10.6168C4.33193 9.84763 5.22059 9.42067 6.14302 9.4209H28.2641C29.1865 9.42067 30.0752 9.84763 30.7531 10.6168C31.431 11.3859 31.8484 12.4407 31.9222 13.5712L33.3954 36.1275C33.4359 36.7482 33.3714 37.3725 33.2061 37.9612C33.0407 38.5498 32.7781 39.0899 32.4346 39.5476C32.0911 40.0052 31.6743 40.3705 31.2104 40.6204C30.7465 40.8703 30.2456 40.9995 29.7391 40.9996H4.66803C4.16155 40.9995 3.66059 40.8703 3.19668 40.6204C2.73277 40.3705 2.31597 40.0052 1.97251 39.5476C1.62905 39.0899 1.36638 38.5498 1.20103 37.9612C1.03569 37.3725 0.971242 36.7482 1.01176 36.1275L2.48491 13.5712V13.5712Z" stroke="white" stroke-width="2" stroke-linecap="round" stroke-linejoin="round"/>
<path d="M25.8376 13.6314V6.61396C25.8376 5.12505 25.0645 3.69711 23.6883 2.64429C22.3121 1.59147 20.4456 1 18.4994 1C16.5531 1 14.6866 1.59147 13.3105 2.64429C11.9343 3.69711 11.1611 5.12505 11.1611 6.61396V13.6314" stroke="white" stroke-width="2" stroke-linecap="round" stroke-linejoin="round"/>
</svg>
