<svg width="70" height="70" viewBox="0 0 70 70" fill="none" xmlns="http://www.w3.org/2000/svg">
<path fill-rule="evenodd" clip-rule="evenodd" d="M-1.5299e-06 35C-2.37484e-06 54.3301 15.6699 70 35 70C54.33 70 70 54.3301 70 35C70 15.67 54.33 -6.84959e-07 35 -1.5299e-06C15.6699 -2.37484e-06 -6.84959e-07 15.67 -1.5299e-06 35ZM45.0314 38.0936C46.74 39.802 49.51 39.802 51.2186 38.0936C52.9271 36.3851 52.9271 33.615 51.2186 31.9064L38.0936 18.7814C36.385 17.0729 33.6149 17.0729 31.9064 18.7814L18.7814 31.9064C17.073 33.615 17.073 36.3851 18.7814 38.0936C20.4899 39.802 23.2601 39.802 24.9686 38.0936L30.625 32.4372L30.625 48.125C30.625 50.5413 32.5837 52.5 35 52.5C37.4162 52.5 39.375 50.5413 39.375 48.125L39.375 32.4372L45.0314 38.0936Z" fill="white"/>
</svg>
